<?xml version="1.0" standalone="no"?>
<!DOCTYPE svg PUBLIC "-//W3C//DTD SVG 20010904//EN"
 "http://www.w3.org/TR/2001/REC-SVG-20010904/DTD/svg10.dtd">
<svg version="1.0" xmlns="http://www.w3.org/2000/svg"
 width="800.000000pt" height="800.000000pt" viewBox="0 0 800.000000 800.000000"
 preserveAspectRatio="xMidYMid meet">
<metadata>
Created by potrace 1.14, written by Peter Selinger 2001-2017
</metadata>
<g transform="translate(0.000000,800.000000) scale(0.100000,-0.100000)"
fill="#000000" stroke="none">
<path d="M4109 7996 c-2 -2 -29 -6 -59 -10 -78 -8 -122 -14 -145 -20 -169 -42
-305 -102 -377 -168 -38 -36 -129 -178 -113 -178 2 0 0 -11 -5 -25 -38 -100
-45 -394 -15 -595 4 -23 31 -191 41 -250 5 -31 68 -300 84 -360 7 -25 12 -47
12 -50 0 -3 5 -16 10 -30 5 -14 11 -33 14 -44 9 -45 97 -322 106 -333 6 -7 8
-13 5 -13 -6 0 66 -210 77 -229 10 -16 -13 -23 -27 -9 -8 7 -26 22 -41 33 -15
11 -40 30 -54 42 -15 13 -30 23 -34 23 -4 0 -15 8 -25 18 -10 10 -43 36 -73
57 -30 22 -59 43 -65 48 -74 57 -256 186 -291 205 -13 7 -24 17 -24 23 0 5 -5
9 -11 9 -6 0 -25 11 -43 25 -18 14 -36 25 -41 25 -4 0 -13 6 -19 13 -11 14
-246 171 -256 172 -3 0 -18 10 -35 21 -36 26 -233 147 -290 179 -129 72 -171
94 -275 145 -240 119 -407 173 -540 173 -76 0 -93 -3 -152 -32 -77 -36 -160
-113 -213 -195 -19 -30 -35 -58 -35 -62 0 -4 -7 -15 -16 -25 -8 -9 -17 -23
-18 -31 -2 -7 -9 -26 -16 -43 -39 -93 -84 -249 -105 -362 -2 -15 -7 -39 -10
-52 -2 -14 -7 -47 -11 -75 -3 -28 -8 -62 -10 -76 -12 -65 -11 -481 1 -570 21
-151 26 -181 39 -235 2 -5 6 -23 10 -40 22 -86 61 -168 102 -214 78 -87 248
-158 442 -186 17 -3 49 -7 70 -10 107 -16 469 -22 617 -10 39 3 97 7 130 9 33
3 83 7 110 10 28 3 77 8 110 12 99 11 109 12 140 17 17 3 55 9 85 12 30 3 62
8 70 10 8 2 33 7 55 10 23 3 52 7 65 10 13 3 40 7 60 10 32 5 56 9 85 15 34 8
20 -4 -43 -35 -39 -20 -75 -35 -78 -34 -4 0 -10 -3 -13 -8 -3 -5 -26 -19 -51
-31 -48 -23 -191 -99 -275 -146 -162 -91 -285 -163 -322 -188 -23 -15 -46 -28
-52 -28 -6 0 -11 -4 -11 -10 0 -5 -6 -10 -12 -11 -7 0 -33 -16 -58 -34 -25
-19 -58 -41 -75 -50 -40 -20 -277 -199 -339 -255 -124 -114 -191 -191 -233
-273 -24 -45 -27 -64 -27 -137 0 -88 2 -104 23 -155 30 -74 45 -105 53 -105 4
0 8 -6 8 -12 0 -11 42 -71 93 -135 54 -66 209 -211 302 -282 22 -17 45 -34 50
-39 25 -20 135 -92 140 -92 4 0 19 -8 33 -19 108 -76 354 -181 507 -216 86
-20 183 -25 244 -12 127 27 302 192 457 432 32 50 62 92 66 93 4 2 8 8 8 14 0
6 15 36 34 67 64 106 266 498 266 515 0 2 17 40 37 83 20 43 38 83 39 88 1 6
20 51 43 100 l40 90 1 -1539 c0 -847 -3 -1536 -7 -1532 -12 11 -62 98 -69 119
-4 9 -10 17 -14 17 -5 0 -11 8 -14 18 -4 10 -14 27 -24 38 -9 10 -35 42 -56
69 -39 49 -164 176 -221 225 -54 46 -199 147 -271 188 -98 57 -318 157 -365
166 -8 2 -21 6 -29 9 -26 11 -170 49 -201 52 -16 2 -33 6 -37 9 -4 2 -36 7
-72 11 -36 4 -74 9 -85 11 -26 6 -304 6 -330 1 -11 -3 -42 -8 -68 -11 -92 -14
-223 -49 -285 -77 -26 -11 -51 -22 -57 -23 -5 -1 -30 -13 -54 -27 -24 -13 -52
-28 -63 -34 -19 -10 -19 -20 4 -110 6 -22 10 -42 10 -45 2 -29 81 -189 153
-309 103 -173 349 -404 565 -530 183 -107 425 -203 590 -235 14 -3 48 -9 77
-15 172 -34 447 -34 603 -1 85 19 94 21 102 26 5 3 21 7 36 10 15 3 43 12 62
20 19 8 46 20 60 26 14 6 42 19 63 30 62 32 119 30 194 -9 62 -31 213 -84 278
-97 121 -23 191 -30 325 -30 133 0 213 7 325 28 108 21 111 22 185 45 127 39
145 45 152 56 4 5 8 7 8 3 0 -12 166 63 262 119 244 140 413 290 586 518 36
48 135 235 163 310 14 39 39 142 39 163 0 46 -244 147 -438 182 -152 27 -394
30 -521 5 -10 -2 -36 -6 -57 -9 -196 -31 -503 -148 -677 -259 -32 -21 -60 -37
-63 -37 -3 0 -11 -6 -18 -12 -8 -7 -39 -31 -70 -53 -61 -42 -71 -51 -157 -130
-64 -60 -160 -168 -216 -245 -50 -68 -129 -212 -125 -225 2 -5 0 -6 -4 -2 -4
4 -8 534 -9 1177 0 643 3 1163 8 1155 4 -7 9 -37 13 -67 5 -49 17 -127 29
-188 3 -14 7 -38 10 -55 3 -25 16 -84 40 -188 2 -10 7 -28 11 -40 4 -12 8 -29
10 -37 4 -36 69 -200 101 -257 73 -133 212 -212 448 -258 144 -27 482 -28 615
0 14 3 39 8 55 11 69 12 259 65 300 83 11 5 45 19 75 31 94 37 280 143 326
185 6 5 22 17 34 25 41 26 205 193 241 245 36 52 51 79 70 130 40 107 25 291
-33 407 -10 21 -16 38 -13 38 4 0 -4 15 -17 33 -13 17 -22 33 -20 35 4 3 -61
111 -107 177 -38 55 -66 92 -151 195 -43 53 -313 325 -397 400 -71 64 -73 65
-223 188 -63 52 -124 101 -135 110 -11 9 -72 55 -135 102 -106 80 -144 107
-254 184 -60 41 -63 46 -25 36 19 -5 45 -11 59 -13 14 -3 43 -10 65 -16 22 -6
58 -13 80 -17 22 -3 43 -8 46 -10 3 -2 19 -5 35 -8 16 -3 70 -12 119 -21 122
-21 130 -22 210 -34 100 -15 165 -23 205 -26 19 -2 69 -6 110 -11 94 -9 388
-9 455 0 201 28 311 91 369 210 34 71 67 156 60 156 -4 0 -2 6 3 13 6 6 11 19
11 27 0 8 5 33 11 55 27 109 35 214 35 430 0 163 -6 276 -19 360 -3 17 -7 46
-9 65 -3 19 -6 35 -6 35 -1 0 -4 16 -7 35 -2 19 -11 60 -19 90 -16 59 -22 80
-28 108 -24 102 -108 292 -169 382 -49 72 -138 153 -203 185 -51 26 -70 29
-144 29 -47 0 -98 -3 -115 -6 -16 -4 -43 -10 -58 -13 -88 -18 -281 -109 -442
-208 -90 -56 -389 -274 -436 -319 -8 -7 -39 -33 -69 -58 -30 -25 -62 -52 -71
-60 -8 -8 -51 -46 -94 -85 -116 -104 -142 -128 -234 -218 -63 -61 -79 -73 -64
-47 12 19 36 60 53 90 37 63 53 91 100 175 18 33 42 76 53 95 45 81 208 414
252 515 26 61 54 125 62 144 8 18 16 39 18 45 1 6 7 25 14 41 20 49 52 139 56
159 3 10 9 33 15 51 6 18 13 42 15 54 3 11 7 31 11 44 3 12 7 33 10 47 2 14 7
32 10 40 13 32 12 221 0 267 -16 58 -50 122 -78 146 -11 9 -17 17 -13 17 14 0
-70 70 -135 114 -104 69 -222 121 -375 164 -106 31 -161 42 -330 67 -44 7
-410 16 -416 11z"/>
</g>
</svg>
