<?xml version="1.0" encoding="UTF-8"?>
<svg xmlns="http://www.w3.org/2000/svg" xmlns:xlink="http://www.w3.org/1999/xlink" width="75px" height="61px" viewBox="0 0 75 61" version="1.1">
<g id="surface1">
<path style=" stroke:none;fill-rule:nonzero;fill:rgb(73.72549%,86.666667%,96.078431%);fill-opacity:1;" d="M 36.640625 25.976562 C 36.640625 25.976562 59.804688 26.246094 62.011719 28.039062 C 64.222656 29.828125 61.433594 43.347656 57.855469 46.351562 C 57.855469 46.351562 46.621094 44.101562 39.214844 33.199219 Z M 36.640625 25.976562 "/>
<path style=" stroke:none;fill-rule:nonzero;fill:rgb(73.72549%,86.666667%,96.078431%);fill-opacity:1;" d="M 37.347656 23.011719 C 37.347656 23.011719 46.628906 4.835938 60.757812 0.386719 C 60.757812 0.386719 66.753906 6.902344 64 17.542969 C 61.242188 28.179688 57.261719 27.621094 53.277344 27.949219 C 49.292969 28.273438 38.996094 26.597656 38.996094 26.597656 Z M 37.347656 23.011719 "/>
<path style=" stroke:none;fill-rule:nonzero;fill:rgb(73.72549%,86.666667%,96.078431%);fill-opacity:1;" d="M 36.769531 25.941406 C 36.769531 25.941406 18.445312 40.421875 17.765625 43.210938 C 17.085938 46 27.5 55.074219 32.175781 55.269531 C 32.175781 55.269531 39.78125 46.554688 39.089844 33.292969 Z M 36.769531 25.941406 "/>
<path style=" stroke:none;fill-rule:nonzero;fill:rgb(73.72549%,86.666667%,96.078431%);fill-opacity:1;" d="M 34.511719 23.894531 C 34.511719 23.894531 16.050781 15.21875 1.988281 20.417969 C 1.988281 20.417969 1.105469 29.285156 9.753906 36.011719 C 18.410156 42.742188 21.277344 39.84375 24.679688 37.640625 C 28.082031 35.4375 35.359375 27.753906 35.359375 27.753906 Z M 34.511719 23.894531 "/>
<path style=" stroke:none;fill-rule:nonzero;fill:rgb(2.352941%,6.27451%,41.568627%);fill-opacity:1;" d="M 35.726562 21.179688 C 35.679688 21.195312 35.632812 21.203125 35.585938 21.203125 C 35.371094 21.203125 35.207031 21.046875 35.214844 20.84375 C 35.21875 20.804688 35.417969 16.546875 34.878906 14.390625 C 34.832031 14.199219 34.957031 14.015625 35.171875 13.945312 C 35.382812 13.890625 35.589844 14.003906 35.636719 14.195312 C 36.199219 16.445312 36 20.664062 35.996094 20.84375 C 35.984375 20.996094 35.875 21.128906 35.726562 21.179688 Z M 35.726562 21.179688 "/>
<path style=" stroke:none;fill-rule:nonzero;fill:rgb(2.352941%,6.27451%,41.568627%);fill-opacity:1;" d="M 33.953125 21.691406 C 33.816406 21.738281 33.660156 21.691406 33.566406 21.5625 C 33.457031 21.410156 30.847656 17.816406 30.078125 15 C 30.027344 14.804688 30.132812 14.601562 30.308594 14.5625 C 30.488281 14.511719 30.675781 14.628906 30.730469 14.820312 C 31.457031 17.503906 34.070312 21.097656 34.097656 21.136719 C 34.214844 21.292969 34.1875 21.519531 34.042969 21.636719 C 34.011719 21.660156 33.984375 21.675781 33.953125 21.691406 Z M 33.953125 21.691406 "/>
<path style=" stroke:none;fill-rule:nonzero;fill:rgb(2.352941%,6.27451%,41.568627%);fill-opacity:1;" d="M 41.347656 30.664062 C 43.160156 35.730469 43.492188 40.25 42.085938 40.753906 C 40.679688 41.261719 38.066406 37.566406 36.253906 32.5 C 34.4375 27.433594 34.105469 22.917969 35.515625 22.410156 C 36.921875 21.902344 39.535156 25.597656 41.347656 30.664062 Z M 41.347656 30.664062 "/>
<path style=" stroke:none;fill-rule:nonzero;fill:rgb(2.352941%,6.27451%,41.568627%);fill-opacity:1;" d="M 38.117188 21.65625 C 38.636719 23.117188 37.886719 24.726562 36.441406 25.25 C 34.996094 25.773438 33.402344 25.011719 32.882812 23.554688 C 32.363281 22.09375 33.113281 20.488281 34.558594 19.964844 C 36.003906 19.441406 37.597656 20.199219 38.117188 21.65625 Z M 38.117188 21.65625 "/>
</g>
</svg>
