<?xml version="1.0" encoding="UTF-8"?>
<svg xmlns="http://www.w3.org/2000/svg" xmlns:xlink="http://www.w3.org/1999/xlink" width="74px" height="61px" viewBox="0 0 74 61" version="1.1">
<g id="surface1">
<path style=" stroke:none;fill-rule:nonzero;fill:rgb(100%,94.509804%,80.784314%);fill-opacity:1;" d="M 36.144531 25.976562 C 36.144531 25.976562 59.230469 26.246094 61.429688 28.039062 C 63.632812 29.828125 60.855469 43.347656 57.285156 46.351562 C 57.285156 46.351562 46.089844 44.101562 38.710938 33.199219 Z M 36.144531 25.976562 "/>
<path style=" stroke:none;fill-rule:nonzero;fill:rgb(100%,94.509804%,80.784314%);fill-opacity:1;" d="M 36.847656 23.007812 C 36.847656 23.007812 46.097656 4.835938 60.179688 0.386719 C 60.179688 0.386719 66.15625 6.90625 63.410156 17.542969 C 60.664062 28.179688 56.695312 27.621094 52.726562 27.949219 C 48.753906 28.273438 38.492188 26.601562 38.492188 26.601562 Z M 36.847656 23.007812 "/>
<path style=" stroke:none;fill-rule:nonzero;fill:rgb(100%,94.509804%,80.784314%);fill-opacity:1;" d="M 36.269531 25.941406 C 36.269531 25.941406 18.007812 40.421875 17.332031 43.210938 C 16.65625 46 27.035156 55.074219 31.695312 55.269531 C 31.695312 55.269531 39.273438 46.554688 38.582031 33.289062 Z M 36.269531 25.941406 "/>
<path style=" stroke:none;fill-rule:nonzero;fill:rgb(100%,94.509804%,80.784314%);fill-opacity:1;" d="M 34.023438 23.894531 C 34.023438 23.894531 15.625 15.21875 1.605469 20.417969 C 1.605469 20.417969 0.726562 29.285156 9.347656 36.011719 C 17.972656 42.738281 20.832031 39.839844 24.222656 37.640625 C 27.617188 35.4375 34.867188 27.753906 34.867188 27.753906 Z M 34.023438 23.894531 "/>
<path style=" stroke:none;fill-rule:nonzero;fill:rgb(78.431373%,42.745098%,10.196078%);fill-opacity:1;" d="M 35.230469 21.179688 C 35.1875 21.195312 35.140625 21.203125 35.09375 21.203125 C 34.878906 21.207031 34.714844 21.046875 34.722656 20.847656 C 34.722656 20.804688 34.921875 16.546875 34.386719 14.390625 C 34.339844 14.199219 34.464844 14.015625 34.679688 13.945312 C 34.886719 13.890625 35.097656 14.003906 35.144531 14.195312 C 35.703125 16.445312 35.507812 20.664062 35.496094 20.839844 C 35.488281 20.996094 35.378906 21.125 35.230469 21.179688 Z M 35.230469 21.179688 "/>
<path style=" stroke:none;fill-rule:nonzero;fill:rgb(78.431373%,42.745098%,10.196078%);fill-opacity:1;" d="M 33.464844 21.6875 C 33.328125 21.738281 33.171875 21.691406 33.082031 21.5625 C 32.96875 21.410156 30.367188 17.816406 29.605469 15 C 29.554688 14.804688 29.65625 14.601562 29.835938 14.5625 C 30.011719 14.511719 30.199219 14.628906 30.253906 14.820312 C 30.980469 17.503906 33.582031 21.097656 33.609375 21.136719 C 33.722656 21.292969 33.699219 21.519531 33.554688 21.636719 C 33.523438 21.660156 33.496094 21.675781 33.464844 21.6875 Z M 33.464844 21.6875 "/>
<path style=" stroke:none;fill-rule:nonzero;fill:rgb(78.431373%,42.745098%,10.196078%);fill-opacity:1;" d="M 40.832031 30.664062 C 42.640625 35.730469 42.96875 40.246094 41.570312 40.753906 C 40.167969 41.261719 37.566406 37.566406 35.757812 32.5 C 33.949219 27.433594 33.621094 22.917969 35.023438 22.410156 C 36.421875 21.902344 39.023438 25.597656 40.832031 30.664062 Z M 40.832031 30.664062 "/>
<path style=" stroke:none;fill-rule:nonzero;fill:rgb(78.431373%,42.745098%,10.196078%);fill-opacity:1;" d="M 37.617188 21.65625 C 38.132812 23.117188 37.386719 24.722656 35.945312 25.246094 C 34.503906 25.773438 32.914062 25.015625 32.398438 23.554688 C 31.878906 22.097656 32.628906 20.488281 34.070312 19.964844 C 35.511719 19.441406 37.097656 20.199219 37.617188 21.65625 Z M 37.617188 21.65625 "/>
</g>
</svg>
