<?xml version="1.0" encoding="UTF-8"?>
<svg xmlns="http://www.w3.org/2000/svg" xmlns:xlink="http://www.w3.org/1999/xlink" width="px" height="75px" viewBox="0 0 38 76" version="1.1">
<g id="surface1">
<path style=" stroke:none;fill-rule:nonzero;fill:rgb(100%,81.960784%,81.960784%);fill-opacity:1;" d="M 18.5625 35.742188 C 18.5625 35.742188 30.414062 35.878906 31.546875 36.773438 C 32.675781 37.664062 31.25 44.402344 29.417969 45.898438 C 29.417969 45.898438 23.667969 44.777344 19.878906 39.34375 Z M 18.5625 35.742188 "/>
<path style=" stroke:none;fill-rule:nonzero;fill:rgb(100%,81.960784%,81.960784%);fill-opacity:1;" d="M 18.921875 34.269531 C 18.921875 34.269531 23.671875 25.210938 30.902344 22.992188 C 30.902344 22.992188 33.972656 26.242188 32.5625 31.542969 C 31.152344 36.84375 29.113281 36.566406 27.074219 36.730469 C 25.035156 36.890625 19.765625 36.054688 19.765625 36.054688 Z M 18.921875 34.269531 "/>
<path style=" stroke:none;fill-rule:nonzero;fill:rgb(100%,81.960784%,81.960784%);fill-opacity:1;" d="M 18.625 35.726562 C 18.625 35.726562 9.246094 42.941406 8.898438 44.335938 C 8.554688 45.726562 13.882812 50.25 16.273438 50.34375 C 16.273438 50.34375 20.167969 46 19.8125 39.390625 Z M 18.625 35.726562 "/>
<path style=" stroke:none;fill-rule:nonzero;fill:rgb(100%,81.960784%,81.960784%);fill-opacity:1;" d="M 17.472656 34.707031 C 17.472656 34.707031 8.023438 30.386719 0.824219 32.972656 C 0.824219 32.972656 0.375 37.394531 4.800781 40.746094 C 9.230469 44.101562 10.695312 42.65625 12.4375 41.554688 C 14.183594 40.460938 17.90625 36.632812 17.90625 36.632812 Z M 17.472656 34.707031 "/>
<path style=" stroke:none;fill-rule:nonzero;fill:rgb(64.705882%,4.705882%,4.705882%);fill-opacity:1;" d="M 18.089844 33.355469 C 18.070312 33.363281 18.042969 33.367188 18.019531 33.367188 C 17.910156 33.367188 17.824219 33.289062 17.832031 33.1875 C 17.832031 33.167969 17.933594 31.046875 17.65625 29.972656 C 17.632812 29.878906 17.699219 29.78125 17.808594 29.75 C 17.917969 29.722656 18.023438 29.78125 18.046875 29.875 C 18.335938 30.996094 18.234375 33.097656 18.226562 33.1875 C 18.226562 33.261719 18.167969 33.328125 18.089844 33.355469 Z M 18.089844 33.355469 "/>
<path style=" stroke:none;fill-rule:nonzero;fill:rgb(64.705882%,4.705882%,4.705882%);fill-opacity:1;" d="M 17.183594 33.609375 C 17.113281 33.632812 17.035156 33.609375 16.988281 33.546875 C 16.929688 33.46875 15.59375 31.679688 15.203125 30.273438 C 15.175781 30.179688 15.230469 30.078125 15.320312 30.058594 C 15.414062 30.03125 15.507812 30.089844 15.535156 30.1875 C 15.910156 31.523438 17.246094 33.316406 17.257812 33.332031 C 17.316406 33.414062 17.304688 33.523438 17.230469 33.582031 C 17.214844 33.59375 17.199219 33.601562 17.183594 33.609375 Z M 17.183594 33.609375 "/>
<path style=" stroke:none;fill-rule:nonzero;fill:rgb(64.705882%,4.705882%,4.705882%);fill-opacity:1;" d="M 20.96875 38.082031 C 21.898438 40.605469 22.066406 42.855469 21.34375 43.109375 C 20.625 43.363281 19.289062 41.519531 18.363281 38.996094 C 17.433594 36.472656 17.261719 34.222656 17.984375 33.96875 C 18.703125 33.714844 20.039062 35.558594 20.96875 38.082031 Z M 20.96875 38.082031 "/>
<path style=" stroke:none;fill-rule:nonzero;fill:rgb(64.705882%,4.705882%,4.705882%);fill-opacity:1;" d="M 19.316406 33.59375 C 19.582031 34.320312 19.199219 35.121094 18.457031 35.382812 C 17.71875 35.644531 16.902344 35.265625 16.636719 34.539062 C 16.371094 33.8125 16.753906 33.007812 17.496094 32.75 C 18.234375 32.488281 19.050781 32.867188 19.316406 33.59375 Z M 19.316406 33.59375 "/>
</g>
</svg>
