<?xml version="1.0" encoding="UTF-8"?>
<svg xmlns="http://www.w3.org/2000/svg" xmlns:xlink="http://www.w3.org/1999/xlink" width="px" height="75px" viewBox="0 0 56 74" version="1.1">
<g id="surface1">
<path style=" stroke:none;fill-rule:evenodd;fill:rgb(14.117647%,49.019608%,29.019608%);fill-opacity:1;" d="M 52.136719 58.820312 C 51.433594 62.789062 48.035156 66.789062 43.027344 68.957031 C 38.023438 71.125 32.765625 70.875 29.378906 68.679688 C 30.082031 64.710938 33.484375 60.710938 38.488281 58.542969 C 43.496094 56.375 48.75 56.628906 52.136719 58.820312 Z M 52.136719 58.820312 "/>
<path style=" stroke:none;fill-rule:evenodd;fill:rgb(14.117647%,49.019608%,29.019608%);fill-opacity:1;" d="M 6.714844 58.820312 C 7.417969 62.789062 10.816406 66.789062 15.824219 68.957031 C 20.828125 71.125 26.082031 70.875 29.46875 68.679688 C 28.765625 64.710938 25.367188 60.710938 20.359375 58.542969 C 15.351562 56.375 10.101562 56.628906 6.714844 58.820312 Z M 6.714844 58.820312 "/>
<path style="fill:none;stroke-width:3.5;stroke-linecap:round;stroke-linejoin:round;stroke:rgb(0%,25.882353%,10.980392%);stroke-opacity:1;stroke-miterlimit:4;" d="M 66.00587 48.00019 C 66.00587 48.00019 66.00587 114.662713 66.00587 153.997304 " transform="matrix(0.444444,0,0,0.443113,0,0)"/>
<path style=" stroke:none;fill-rule:nonzero;fill:rgb(96.862745%,38.039216%,38.039216%);fill-opacity:1;" d="M 25.738281 21.726562 C 25.738281 21.726562 19.246094 5.132812 23.742188 1.726562 C 28.242188 -1.679688 40.484375 0.261719 41.601562 4.851562 C 42.714844 9.4375 35.097656 21.582031 35.097656 21.582031 C 35.097656 21.582031 46.777344 9.550781 51.585938 12.117188 C 56.398438 14.683594 57.011719 28.445312 53.851562 31.050781 C 50.695312 33.660156 37.863281 30.433594 37.863281 30.433594 C 37.863281 30.433594 56.828125 42.679688 51.734375 49.335938 C 46.644531 55.992188 35.734375 55.972656 32.796875 53.195312 C 29.859375 50.417969 29.40625 35.117188 29.40625 35.117188 C 29.40625 35.117188 23.65625 50.671875 19.003906 51.09375 C 14.351562 51.511719 4.683594 44.777344 5.761719 40.511719 C 6.835938 36.25 21.019531 29.609375 21.019531 29.609375 C 21.019531 29.609375 3.046875 33.257812 0.964844 27.976562 C -1.109375 22.691406 0.0859375 10.75 5.222656 10.222656 C 10.355469 9.699219 25.738281 21.726562 25.738281 21.726562 Z M 25.738281 21.726562 "/>
<path style=" stroke:none;fill-rule:nonzero;fill:rgb(47.058824%,0%,0%);fill-opacity:1;" d="M 27.863281 34.914062 C 27.863281 34.914062 21.160156 35.046875 21.746094 27.332031 C 22.328125 19.621094 31.886719 18.996094 36.011719 24.871094 C 40.136719 30.742188 32.070312 35.671875 27.863281 34.914062 Z M 27.863281 34.914062 "/>
</g>
</svg>
