<?xml version="1.0" encoding="UTF-8"?>
<svg xmlns="http://www.w3.org/2000/svg" xmlns:xlink="http://www.w3.org/1999/xlink" width="93px" height="75px" viewBox="0 0 69 75" version="1.1">
<g id="surface1">
<path style=" stroke:none;fill-rule:nonzero;fill:rgb(76.862745%,54.117647%,33.333333%);fill-opacity:1;" d="M 20.230469 28.078125 L 18.011719 29.78125 L 49.882812 72.167969 L 52.101562 70.46875 Z M 20.230469 28.078125 "/>
<path style=" stroke:none;fill-rule:nonzero;fill:rgb(82.352941%,39.607843%,0%);fill-opacity:1;" d="M 42.628906 64.519531 L 46.855469 61.277344 L 53.328125 69.886719 C 53.660156 70.332031 53.234375 71.226562 52.371094 71.886719 L 51.265625 72.734375 C 50.40625 73.394531 49.4375 73.570312 49.101562 73.128906 Z M 42.628906 64.519531 "/>
<path style="fill-rule:nonzero;fill:rgb(92.156863%,100%,100%);fill-opacity:0.709804;stroke-width:1;stroke-linecap:butt;stroke-linejoin:miter;stroke:rgb(82.352941%,39.607843%,0%);stroke-opacity:1;stroke-miterlimit:4;" d="M 130.809783 30.523698 C 108.733696 22.442708 54.970109 32.663021 30.847826 38.782292 L 90.032609 116.855469 C 104.217391 91.417708 132.774457 39.702604 133.483696 36.36849 C 134.184783 33.034375 132.709239 31.573177 130.809783 30.523698 Z M 130.809783 30.523698 " transform="matrix(0.479167,0,0,0.483871,0,0)"/>
<path style="fill:none;stroke-width:1;stroke-linecap:butt;stroke-linejoin:miter;stroke:rgb(82.352941%,39.607843%,0%);stroke-opacity:1;stroke-miterlimit:4;" d="M 111.668478 27.286458 L 127.125 48.292187 " transform="matrix(0.479167,0,0,0.483871,0,0)"/>
<path style="fill:none;stroke-width:1;stroke-linecap:butt;stroke-linejoin:miter;stroke:rgb(82.352941%,39.607843%,0%);stroke-opacity:1;stroke-miterlimit:4;" d="M 103.956522 27.754687 L 123.652174 54.952344 " transform="matrix(0.479167,0,0,0.483871,0,0)"/>
<path style="fill:none;stroke-width:1;stroke-linecap:butt;stroke-linejoin:miter;stroke:rgb(82.352941%,39.607843%,0%);stroke-opacity:1;stroke-miterlimit:4;" d="M 95.453804 28.004948 L 120.179348 61.6125 " transform="matrix(0.479167,0,0,0.483871,0,0)"/>
<path style="fill:none;stroke-width:1;stroke-linecap:butt;stroke-linejoin:miter;stroke:rgb(82.352941%,39.607843%,0%);stroke-opacity:1;stroke-miterlimit:4;" d="M 86.747283 29.046354 L 116.290761 69.846875 " transform="matrix(0.479167,0,0,0.483871,0,0)"/>
<path style="fill:none;stroke-width:1;stroke-linecap:butt;stroke-linejoin:miter;stroke:rgb(82.352941%,39.607843%,0%);stroke-opacity:1;stroke-miterlimit:4;" d="M 78.032609 30.079687 L 112.027174 76.289062 " transform="matrix(0.479167,0,0,0.483871,0,0)"/>
<path style="fill:none;stroke-width:1;stroke-linecap:butt;stroke-linejoin:miter;stroke:rgb(82.352941%,39.607843%,0%);stroke-opacity:1;stroke-miterlimit:4;" d="M 69.326087 31.121094 L 108.350543 83.732292 " transform="matrix(0.479167,0,0,0.483871,0,0)"/>
<path style="fill:none;stroke-width:1;stroke-linecap:butt;stroke-linejoin:miter;stroke:rgb(82.352941%,39.607843%,0%);stroke-opacity:1;stroke-miterlimit:4;" d="M 59.616848 32.735677 L 103.663043 91.756771 " transform="matrix(0.479167,0,0,0.483871,0,0)"/>
<path style="fill:none;stroke-width:1;stroke-linecap:butt;stroke-linejoin:miter;stroke:rgb(82.352941%,39.607843%,0%);stroke-opacity:1;stroke-miterlimit:4;" d="M 50.902174 33.76901 L 99.986413 99.2 " transform="matrix(0.479167,0,0,0.483871,0,0)"/>
<path style="fill:none;stroke-width:1;stroke-linecap:butt;stroke-linejoin:miter;stroke:rgb(82.352941%,39.607843%,0%);stroke-opacity:1;stroke-miterlimit:4;" d="M 41.771739 36.384635 L 95.095109 108.007552 " transform="matrix(0.479167,0,0,0.483871,0,0)"/>
<path style="fill:none;stroke-width:1;stroke-linecap:butt;stroke-linejoin:miter;stroke:rgb(82.352941%,39.607843%,0%);stroke-opacity:1;stroke-miterlimit:4;" d="M 78.30163 103.486719 L 96.603261 104.81875 " transform="matrix(0.479167,0,0,0.483871,0,0)"/>
<path style="fill:none;stroke-width:1;stroke-linecap:butt;stroke-linejoin:miter;stroke:rgb(82.352941%,39.607843%,0%);stroke-opacity:1;stroke-miterlimit:4;" d="M 68.103261 91.845573 L 103.467391 92.451042 " transform="matrix(0.479167,0,0,0.483871,0,0)"/>
<path style="fill:none;stroke-width:1;stroke-linecap:butt;stroke-linejoin:miter;stroke:rgb(82.352941%,39.607843%,0%);stroke-opacity:1;stroke-miterlimit:4;" d="M 58.752717 79.833073 L 110.92663 80.228646 " transform="matrix(0.479167,0,0,0.483871,0,0)"/>
<path style="fill:none;stroke-width:1;stroke-linecap:butt;stroke-linejoin:miter;stroke:rgb(82.352941%,39.607843%,0%);stroke-opacity:1;stroke-miterlimit:4;" d="M 45.521739 58.916146 L 124.035326 55.460937 " transform="matrix(0.479167,0,0,0.483871,0,0)"/>
<path style="fill:none;stroke-width:1;stroke-linecap:butt;stroke-linejoin:miter;stroke:rgb(82.352941%,39.607843%,0%);stroke-opacity:1;stroke-miterlimit:4;" d="M 37.402174 48.316406 L 129.138587 45.86224 " transform="matrix(0.479167,0,0,0.483871,0,0)"/>
<path style="fill:none;stroke-width:1;stroke-linecap:butt;stroke-linejoin:miter;stroke:rgb(82.352941%,39.607843%,0%);stroke-opacity:1;stroke-miterlimit:4;" d="M 30.423913 39.742969 L 133.451087 36.061719 " transform="matrix(0.479167,0,0,0.483871,0,0)"/>
<path style="fill:none;stroke-width:1;stroke-linecap:butt;stroke-linejoin:miter;stroke:rgb(82.352941%,39.607843%,0%);stroke-opacity:1;stroke-miterlimit:4;" d="M 53.747283 69.160677 L 117.30163 67.990104 " transform="matrix(0.479167,0,0,0.483871,0,0)"/>
<path style=" stroke:none;fill-rule:nonzero;fill:rgb(82.352941%,39.607843%,0%);fill-opacity:1;" d="M 14.621094 18.277344 L 10.324219 21.570312 L 39.125 59.875 L 43.421875 56.578125 Z M 14.621094 18.277344 "/>
</g>
</svg>
