<?xml version="1.0" encoding="UTF-8"?>
<svg xmlns="http://www.w3.org/2000/svg" xmlns:xlink="http://www.w3.org/1999/xlink" width="100px" height="px" viewBox="0 0 99 81" version="1.1">
<g id="surface1">
<path style=" stroke:none;fill-rule:nonzero;fill:rgb(100%,81.960784%,81.960784%);fill-opacity:1;" d="M 48.355469 34.492188 C 48.355469 34.492188 79.238281 34.851562 82.183594 37.230469 C 85.128906 39.605469 81.414062 57.558594 76.640625 61.546875 C 76.640625 61.546875 61.660156 58.558594 51.789062 44.082031 Z M 48.355469 34.492188 "/>
<path style=" stroke:none;fill-rule:nonzero;fill:rgb(100%,81.960784%,81.960784%);fill-opacity:1;" d="M 49.296875 30.554688 C 49.296875 30.554688 61.671875 6.421875 80.511719 0.511719 C 80.511719 0.511719 88.507812 9.167969 84.832031 23.292969 C 81.15625 37.417969 75.851562 36.679688 70.539062 37.113281 C 65.222656 37.542969 51.496094 35.320312 51.496094 35.320312 Z M 49.296875 30.554688 "/>
<path style=" stroke:none;fill-rule:nonzero;fill:rgb(100%,81.960784%,81.960784%);fill-opacity:1;" d="M 48.523438 34.445312 C 48.523438 34.445312 24.09375 53.675781 23.1875 57.378906 C 22.28125 61.082031 36.167969 73.132812 42.402344 73.390625 C 42.402344 73.390625 52.542969 61.816406 51.617188 44.207031 Z M 48.523438 34.445312 "/>
<path style=" stroke:none;fill-rule:nonzero;fill:rgb(100%,81.960784%,81.960784%);fill-opacity:1;" d="M 45.515625 31.726562 C 45.515625 31.726562 20.902344 20.210938 2.148438 27.113281 C 2.148438 27.113281 0.972656 38.886719 12.507812 47.820312 C 24.046875 56.753906 27.867188 52.90625 32.40625 49.980469 C 36.945312 47.058594 46.644531 36.855469 46.644531 36.855469 Z M 45.515625 31.726562 "/>
<path style=" stroke:none;fill-rule:nonzero;fill:rgb(64.705882%,4.705882%,4.705882%);fill-opacity:1;" d="M 47.136719 28.125 C 47.074219 28.144531 47.011719 28.15625 46.949219 28.15625 C 46.660156 28.15625 46.441406 27.945312 46.453125 27.679688 C 46.457031 27.625 46.722656 21.972656 46.007812 19.109375 C 45.941406 18.855469 46.109375 18.609375 46.394531 18.519531 C 46.675781 18.445312 46.953125 18.59375 47.015625 18.847656 C 47.765625 21.835938 47.5 27.4375 47.492188 27.675781 C 47.480469 27.878906 47.332031 28.054688 47.136719 28.125 Z M 47.136719 28.125 "/>
<path style=" stroke:none;fill-rule:nonzero;fill:rgb(64.705882%,4.705882%,4.705882%);fill-opacity:1;" d="M 44.769531 28.800781 C 44.589844 28.863281 44.378906 28.804688 44.257812 28.632812 C 44.109375 28.429688 40.628906 23.65625 39.605469 19.917969 C 39.539062 19.660156 39.675781 19.390625 39.914062 19.335938 C 40.152344 19.269531 40.402344 19.425781 40.472656 19.679688 C 41.445312 23.242188 44.925781 28.015625 44.964844 28.066406 C 45.117188 28.273438 45.082031 28.574219 44.890625 28.730469 C 44.851562 28.761719 44.8125 28.785156 44.769531 28.800781 Z M 44.769531 28.800781 "/>
<path style=" stroke:none;fill-rule:nonzero;fill:rgb(64.705882%,4.705882%,4.705882%);fill-opacity:1;" d="M 54.628906 40.71875 C 57.046875 47.445312 57.488281 53.445312 55.613281 54.117188 C 53.738281 54.789062 50.253906 49.882812 47.835938 43.15625 C 45.417969 36.429688 44.976562 30.429688 46.855469 29.757812 C 48.730469 29.082031 52.210938 33.992188 54.628906 40.71875 Z M 54.628906 40.71875 "/>
<path style=" stroke:none;fill-rule:nonzero;fill:rgb(64.705882%,4.705882%,4.705882%);fill-opacity:1;" d="M 50.324219 28.757812 C 51.015625 30.695312 50.015625 32.832031 48.089844 33.527344 C 46.160156 34.222656 44.035156 33.214844 43.34375 31.277344 C 42.648438 29.339844 43.652344 27.207031 45.578125 26.511719 C 47.507812 25.816406 49.632812 26.820312 50.324219 28.757812 Z M 50.324219 28.757812 "/>
</g>
</svg>
