<?xml version="1.0" encoding="UTF-8"?>
<svg xmlns="http://www.w3.org/2000/svg" xmlns:xlink="http://www.w3.org/1999/xlink" width="50px" height="100px" viewBox="0 0 50 40" version="1.1">
<g id="surface1">
<path style=" stroke:none;fill-rule:nonzero;fill:rgb(100%,81.960784%,81.960784%);fill-opacity:1;" d="M 24.421875 17.03125 C 24.421875 17.03125 40.019531 17.210938 41.507812 18.386719 C 42.996094 19.558594 41.117188 28.425781 38.707031 30.394531 C 38.707031 30.394531 31.140625 28.917969 26.15625 21.769531 Z M 24.421875 17.03125 "/>
<path style=" stroke:none;fill-rule:nonzero;fill:rgb(100%,81.960784%,81.960784%);fill-opacity:1;" d="M 24.898438 15.089844 C 24.898438 15.089844 31.148438 3.171875 40.660156 0.253906 C 40.660156 0.253906 44.699219 4.527344 42.84375 11.503906 C 40.988281 18.476562 38.308594 18.113281 35.625 18.328125 C 32.941406 18.539062 26.007812 17.441406 26.007812 17.441406 Z M 24.898438 15.089844 "/>
<path style=" stroke:none;fill-rule:nonzero;fill:rgb(100%,81.960784%,81.960784%);fill-opacity:1;" d="M 24.507812 17.007812 C 24.507812 17.007812 12.167969 26.503906 11.710938 28.335938 C 11.253906 30.164062 18.265625 36.117188 21.414062 36.242188 C 21.414062 36.242188 26.535156 30.527344 26.070312 21.828125 Z M 24.507812 17.007812 "/>
<path style=" stroke:none;fill-rule:nonzero;fill:rgb(100%,81.960784%,81.960784%);fill-opacity:1;" d="M 22.988281 15.667969 C 22.988281 15.667969 10.554688 9.980469 1.085938 13.386719 C 1.085938 13.386719 0.492188 19.203125 6.316406 23.613281 C 12.144531 28.027344 14.074219 26.125 16.367188 24.679688 C 18.660156 23.238281 23.558594 18.199219 23.558594 18.199219 Z M 22.988281 15.667969 "/>
<path style=" stroke:none;fill-rule:nonzero;fill:rgb(64.705882%,4.705882%,4.705882%);fill-opacity:1;" d="M 23.804688 13.886719 C 23.777344 13.898438 23.742188 13.902344 23.710938 13.902344 C 23.566406 13.90625 23.453125 13.800781 23.460938 13.667969 C 23.460938 13.640625 23.597656 10.851562 23.234375 9.4375 C 23.203125 9.3125 23.289062 9.1875 23.433594 9.144531 C 23.574219 9.109375 23.714844 9.183594 23.746094 9.308594 C 24.125 10.785156 23.992188 13.550781 23.984375 13.667969 C 23.980469 13.765625 23.90625 13.851562 23.804688 13.886719 Z M 23.804688 13.886719 "/>
<path style=" stroke:none;fill-rule:nonzero;fill:rgb(64.705882%,4.705882%,4.705882%);fill-opacity:1;" d="M 22.609375 14.222656 C 22.519531 14.253906 22.414062 14.222656 22.351562 14.140625 C 22.277344 14.039062 20.519531 11.683594 20.003906 9.835938 C 19.96875 9.710938 20.039062 9.574219 20.160156 9.550781 C 20.28125 9.515625 20.40625 9.59375 20.441406 9.71875 C 20.933594 11.476562 22.691406 13.835938 22.707031 13.859375 C 22.785156 13.964844 22.769531 14.109375 22.671875 14.1875 C 22.652344 14.203125 22.632812 14.214844 22.609375 14.222656 Z M 22.609375 14.222656 "/>
<path style=" stroke:none;fill-rule:nonzero;fill:rgb(64.705882%,4.705882%,4.705882%);fill-opacity:1;" d="M 27.589844 20.109375 C 28.8125 23.429688 29.035156 26.390625 28.085938 26.722656 C 27.140625 27.058594 25.382812 24.632812 24.160156 21.3125 C 22.9375 17.988281 22.714844 15.027344 23.664062 14.695312 C 24.609375 14.363281 26.367188 16.785156 27.589844 20.109375 Z M 27.589844 20.109375 "/>
<path style=" stroke:none;fill-rule:nonzero;fill:rgb(64.705882%,4.705882%,4.705882%);fill-opacity:1;" d="M 25.417969 14.203125 C 25.765625 15.160156 25.261719 16.210938 24.285156 16.554688 C 23.3125 16.898438 22.238281 16.402344 21.890625 15.445312 C 21.539062 14.488281 22.046875 13.433594 23.019531 13.09375 C 23.992188 12.75 25.066406 13.246094 25.417969 14.203125 Z M 25.417969 14.203125 "/>
</g>
</svg>
