<?xml version="1.0" encoding="UTF-8"?>
<svg xmlns="http://www.w3.org/2000/svg" xmlns:xlink="http://www.w3.org/1999/xlink" width="75px" height="100px" viewBox="0 0 75 100" version="1.1">
<g id="surface1">
<path style=" stroke:none;fill-rule:evenodd;fill:rgb(14.117647%,49.019608%,29.019608%);fill-opacity:1;" d="M 69.824219 79.488281 C 68.886719 84.851562 64.332031 90.253906 57.625 93.183594 C 50.921875 96.113281 43.882812 95.777344 39.347656 92.808594 C 40.289062 87.449219 44.84375 82.042969 51.546875 79.113281 C 58.253906 76.183594 65.289062 76.523438 69.824219 79.488281 Z M 69.824219 79.488281 "/>
<path style=" stroke:none;fill-rule:evenodd;fill:rgb(14.117647%,49.019608%,29.019608%);fill-opacity:1;" d="M 8.992188 79.488281 C 9.933594 84.851562 14.488281 90.253906 21.191406 93.183594 C 27.894531 96.113281 34.929688 95.777344 39.46875 92.808594 C 38.527344 87.449219 33.972656 82.042969 27.265625 79.113281 C 20.5625 76.183594 13.527344 76.523438 8.992188 79.488281 Z M 8.992188 79.488281 "/>
<path style="fill:none;stroke-width:3.5;stroke-linecap:round;stroke-linejoin:round;stroke:rgb(0%,25.882353%,10.980392%);stroke-opacity:1;stroke-miterlimit:4;" d="M 66.005608 47.999485 C 66.005608 47.999485 66.005608 114.662537 66.005608 153.998891 " transform="matrix(0.595238,0,0,0.598802,0,0)"/>
<path style=" stroke:none;fill-rule:nonzero;fill:rgb(96.862745%,38.039216%,38.039216%);fill-opacity:1;" d="M 34.472656 29.359375 C 34.472656 29.359375 25.773438 6.933594 31.796875 2.332031 C 37.824219 -2.269531 54.21875 0.355469 55.714844 6.554688 C 57.207031 12.753906 47.007812 29.164062 47.007812 29.164062 C 47.007812 29.164062 62.648438 12.90625 69.089844 16.375 C 75.53125 19.84375 76.355469 38.4375 72.125 41.960938 C 67.894531 45.484375 50.710938 41.128906 50.710938 41.128906 C 50.710938 41.128906 76.109375 57.675781 69.289062 66.667969 C 62.46875 75.664062 47.859375 75.636719 43.925781 71.886719 C 39.992188 68.132812 39.382812 47.453125 39.382812 47.453125 C 39.382812 47.453125 31.683594 68.476562 25.453125 69.042969 C 19.21875 69.609375 6.273438 60.507812 7.714844 54.746094 C 9.15625 48.984375 28.152344 40.011719 28.152344 40.011719 C 28.152344 40.011719 4.078125 44.941406 1.292969 37.804688 C -1.484375 30.664062 0.117188 14.527344 6.996094 13.816406 C 13.871094 13.109375 34.472656 29.359375 34.472656 29.359375 Z M 34.472656 29.359375 "/>
<path style=" stroke:none;fill-rule:nonzero;fill:rgb(47.058824%,0%,0%);fill-opacity:1;" d="M 37.316406 47.183594 C 37.316406 47.183594 28.339844 47.359375 29.125 36.9375 C 29.90625 26.515625 42.703125 25.671875 48.230469 33.609375 C 53.753906 41.542969 42.953125 48.203125 37.316406 47.183594 Z M 37.316406 47.183594 "/>
</g>
</svg>
