<?xml version="1.0" encoding="UTF-8"?>
<svg xmlns="http://www.w3.org/2000/svg" xmlns:xlink="http://www.w3.org/1999/xlink" width="px" height="100px" viewBox="0 0 93 100" version="1.1">
<g id="surface1">
<path style=" stroke:none;fill-rule:nonzero;fill:rgb(76.862745%,54.117647%,33.333333%);fill-opacity:1;" d="M 27.269531 37.441406 L 24.277344 39.707031 L 67.234375 96.226562 L 70.226562 93.957031 Z M 27.269531 37.441406 "/>
<path style=" stroke:none;fill-rule:nonzero;fill:rgb(82.352941%,39.607843%,0%);fill-opacity:1;" d="M 57.457031 86.023438 L 63.152344 81.707031 L 71.875 93.183594 C 72.324219 93.777344 71.75 94.96875 70.585938 95.851562 L 69.097656 96.980469 C 67.9375 97.859375 66.628906 98.09375 66.179688 97.503906 Z M 57.457031 86.023438 "/>
<path style="fill-rule:nonzero;fill:rgb(92.156863%,100%,100%);fill-opacity:0.709804;stroke-width:1;stroke-linecap:butt;stroke-linejoin:miter;stroke:rgb(82.352941%,39.607843%,0%);stroke-opacity:1;stroke-miterlimit:4;" d="M 130.808468 30.527734 C 108.737903 22.438672 54.97379 32.658984 30.852823 38.780273 L 90.030242 116.855469 C 104.219758 91.419727 132.780242 39.700586 133.481855 36.370508 C 134.183468 33.034375 132.707661 31.575195 130.808468 30.527734 Z M 130.808468 30.527734 " transform="matrix(0.645833,0,0,0.645161,0,0)"/>
<path style="fill:none;stroke-width:1;stroke-linecap:butt;stroke-linejoin:miter;stroke:rgb(82.352941%,39.607843%,0%);stroke-opacity:1;stroke-miterlimit:4;" d="M 111.671371 27.288477 L 127.118952 48.292188 " transform="matrix(0.645833,0,0,0.645161,0,0)"/>
<path style="fill:none;stroke-width:1;stroke-linecap:butt;stroke-linejoin:miter;stroke:rgb(82.352941%,39.607843%,0%);stroke-opacity:1;stroke-miterlimit:4;" d="M 103.959677 27.754687 L 123.653226 54.958398 " transform="matrix(0.645833,0,0,0.645161,0,0)"/>
<path style="fill:none;stroke-width:1;stroke-linecap:butt;stroke-linejoin:miter;stroke:rgb(82.352941%,39.607843%,0%);stroke-opacity:1;stroke-miterlimit:4;" d="M 95.455645 28.00293 L 120.181452 61.6125 " transform="matrix(0.645833,0,0,0.645161,0,0)"/>
<path style="fill:none;stroke-width:1;stroke-linecap:butt;stroke-linejoin:miter;stroke:rgb(82.352941%,39.607843%,0%);stroke-opacity:1;stroke-miterlimit:4;" d="M 86.745968 29.044336 L 116.292339 69.846875 " transform="matrix(0.645833,0,0,0.645161,0,0)"/>
<path style="fill:none;stroke-width:1;stroke-linecap:butt;stroke-linejoin:miter;stroke:rgb(82.352941%,39.607843%,0%);stroke-opacity:1;stroke-miterlimit:4;" d="M 78.03629 30.079688 L 112.028226 76.295117 " transform="matrix(0.645833,0,0,0.645161,0,0)"/>
<path style="fill:none;stroke-width:1;stroke-linecap:butt;stroke-linejoin:miter;stroke:rgb(82.352941%,39.607843%,0%);stroke-opacity:1;stroke-miterlimit:4;" d="M 69.320565 31.121094 L 108.344758 83.736328 " transform="matrix(0.645833,0,0,0.645161,0,0)"/>
<path style="fill:none;stroke-width:1;stroke-linecap:butt;stroke-linejoin:miter;stroke:rgb(82.352941%,39.607843%,0%);stroke-opacity:1;stroke-miterlimit:4;" d="M 59.612903 32.731641 L 103.669355 91.758789 " transform="matrix(0.645833,0,0,0.645161,0,0)"/>
<path style="fill:none;stroke-width:1;stroke-linecap:butt;stroke-linejoin:miter;stroke:rgb(82.352941%,39.607843%,0%);stroke-opacity:1;stroke-miterlimit:4;" d="M 50.903226 33.773047 L 99.985887 99.2 " transform="matrix(0.645833,0,0,0.645161,0,0)"/>
<path style="fill:none;stroke-width:1;stroke-linecap:butt;stroke-linejoin:miter;stroke:rgb(82.352941%,39.607843%,0%);stroke-opacity:1;stroke-miterlimit:4;" d="M 41.770161 36.382617 L 95.09879 108.00957 " transform="matrix(0.645833,0,0,0.645161,0,0)"/>
<path style="fill:none;stroke-width:1;stroke-linecap:butt;stroke-linejoin:miter;stroke:rgb(82.352941%,39.607843%,0%);stroke-opacity:1;stroke-miterlimit:4;" d="M 78.302419 103.486719 L 96.604839 104.81875 " transform="matrix(0.645833,0,0,0.645161,0,0)"/>
<path style="fill:none;stroke-width:1;stroke-linecap:butt;stroke-linejoin:miter;stroke:rgb(82.352941%,39.607843%,0%);stroke-opacity:1;stroke-miterlimit:4;" d="M 68.104839 91.843555 L 103.469758 92.449023 " transform="matrix(0.645833,0,0,0.645161,0,0)"/>
<path style="fill:none;stroke-width:1;stroke-linecap:butt;stroke-linejoin:miter;stroke:rgb(82.352941%,39.607843%,0%);stroke-opacity:1;stroke-miterlimit:4;" d="M 58.754032 79.837109 L 110.927419 80.224609 " transform="matrix(0.645833,0,0,0.645161,0,0)"/>
<path style="fill:none;stroke-width:1;stroke-linecap:butt;stroke-linejoin:miter;stroke:rgb(82.352941%,39.607843%,0%);stroke-opacity:1;stroke-miterlimit:4;" d="M 45.520161 58.912109 L 124.034274 55.460938 " transform="matrix(0.645833,0,0,0.645161,0,0)"/>
<path style="fill:none;stroke-width:1;stroke-linecap:butt;stroke-linejoin:miter;stroke:rgb(82.352941%,39.607843%,0%);stroke-opacity:1;stroke-miterlimit:4;" d="M 37.397177 48.316406 L 129.133065 45.864258 " transform="matrix(0.645833,0,0,0.645161,0,0)"/>
<path style="fill:none;stroke-width:1;stroke-linecap:butt;stroke-linejoin:miter;stroke:rgb(82.352941%,39.607843%,0%);stroke-opacity:1;stroke-miterlimit:4;" d="M 30.423387 39.742969 L 133.451613 36.055664 " transform="matrix(0.645833,0,0,0.645161,0,0)"/>
<path style="fill:none;stroke-width:1;stroke-linecap:butt;stroke-linejoin:miter;stroke:rgb(82.352941%,39.607843%,0%);stroke-opacity:1;stroke-miterlimit:4;" d="M 53.752016 69.156641 L 117.302419 67.988086 " transform="matrix(0.645833,0,0,0.645161,0,0)"/>
<path style=" stroke:none;fill-rule:nonzero;fill:rgb(82.352941%,39.607843%,0%);fill-opacity:1;" d="M 19.707031 24.367188 L 13.914062 28.761719 L 52.730469 79.832031 L 58.527344 75.441406 Z M 19.707031 24.367188 "/>
</g>
</svg>
